<?xml version="1.0" standalone="no"?>
<!DOCTYPE svg PUBLIC "-//W3C//DTD SVG 20010904//EN"
 "http://www.w3.org/TR/2001/REC-SVG-20010904/DTD/svg10.dtd">
<svg version="1.0" xmlns="http://www.w3.org/2000/svg"
 width="700.000000pt" height="700.000000pt" viewBox="0 0 700.000000 700.000000"
 preserveAspectRatio="xMidYMid meet">
<metadata>
Created by potrace 1.14, written by Peter Selinger 2001-2017
</metadata>
<g transform="translate(0.000000,700.000000) scale(0.100000,-0.100000)"
fill="#000000" stroke="none">
<path d="M1083 5252 l-53 -3 0 -1698 c0 -1350 3 -1700 13 -1703 23 -7 1191 -1
1272 7 44 4 92 8 108 9 15 0 27 4 27 8 0 4 6 5 14 2 8 -3 17 -1 20 5 5 7 15 7
34 0 14 -6 23 -7 19 -2 -7 7 71 31 118 36 11 1 23 5 26 10 5 7 41 18 67 19 6
1 12 6 12 11 0 5 7 7 15 3 8 -3 15 -1 15 4 0 6 6 10 14 10 8 0 22 7 30 16 9 8
16 12 16 9 0 -4 11 0 25 9 14 9 25 13 25 9 0 -4 7 2 15 13 8 10 15 15 15 10 0
-5 11 1 25 14 14 13 25 20 25 17 0 -4 12 3 27 16 41 33 174 167 166 167 -3 0
2 8 11 19 25 28 87 132 73 125 -7 -4 -3 2 7 14 11 12 16 22 11 22 -4 0 -3 6 3
13 9 10 28 70 37 117 2 8 4 16 5 18 8 8 24 152 21 176 -2 12 1 16 10 11 8 -6
10 -4 4 6 -5 7 -10 43 -12 79 -2 60 -9 121 -14 128 -1 1 -2 11 -3 21 0 11 -4
23 -8 27 -5 4 -8 13 -8 20 0 7 -5 25 -12 41 -6 15 -11 31 -10 36 1 4 -3 7 -9
7 -5 0 -8 4 -4 9 3 5 -2 17 -11 25 -8 9 -12 16 -7 16 4 0 3 4 -2 8 -6 4 -16
18 -23 32 -7 14 -26 40 -42 59 -17 18 -30 38 -30 42 0 5 -7 9 -15 9 -8 0 -15
7 -15 15 0 8 -4 15 -10 15 -5 0 -19 10 -32 23 -13 13 -31 26 -41 30 -9 3 -17
11 -17 17 0 6 -4 9 -8 6 -5 -3 -18 3 -28 13 -11 9 -25 16 -32 13 -6 -2 -12 1
-12 8 0 6 -4 8 -10 5 -5 -3 -10 -1 -10 6 0 7 -3 9 -7 6 -3 -4 -17 0 -30 8 -13
9 -23 13 -23 9 0 -3 -12 1 -26 11 -15 9 -23 11 -19 4 6 -9 4 -10 -6 -3 -8 5
-30 14 -49 20 -26 9 -29 12 -13 13 12 1 24 5 27 10 5 8 64 25 79 22 4 0 7 4 7
11 0 6 3 9 6 5 4 -3 26 7 50 24 24 16 44 27 44 23 0 -4 7 1 15 12 8 10 15 16
15 11 0 -11 130 108 130 119 0 3 6 12 13 19 6 8 17 21 24 29 18 21 83 146 76
146 -3 0 1 8 8 17 12 15 12 16 -1 8 -10 -6 -9 -2 3 12 10 11 17 24 16 29 -1 5
0 11 1 14 3 7 10 52 13 75 1 11 7 23 12 27 6 5 5 8 -4 8 -9 0 -10 4 -4 13 12
14 12 186 0 204 -4 6 -3 14 3 18 6 3 7 14 2 23 -4 9 -7 26 -7 37 1 11 -3 26
-8 33 -6 7 -7 15 -4 18 3 3 -3 29 -12 57 -10 29 -16 58 -14 65 3 6 0 12 -5 12
-5 0 -20 27 -33 60 -13 33 -27 60 -31 60 -5 0 -8 7 -8 15 0 9 -7 18 -15 21 -8
4 -15 12 -15 20 0 7 -16 30 -35 50 -19 19 -35 41 -35 47 0 5 -3 8 -6 5 -3 -3
-22 11 -42 31 -20 21 -57 51 -82 67 -25 16 -48 33 -52 39 -4 5 -8 6 -8 1 0 -5
-8 -2 -17 6 -23 19 -119 65 -155 73 -16 4 -28 12 -28 18 0 6 -3 8 -6 4 -3 -3
-31 3 -62 14 -32 11 -58 19 -59 19 -2 0 -4 0 -5 1 -11 3 -47 9 -65 11 -13 1
-23 5 -23 8 0 3 -15 6 -32 7 -76 5 -116 10 -128 18 -7 4 -16 2 -20 -5 -5 -9
-9 -9 -11 -1 -3 8 -162 12 -569 14 -311 1 -589 1 -617 -1z m573 -575 c4 -4 14
-2 21 5 11 9 17 9 24 -3 5 -8 9 -9 9 -3 0 12 58 13 77 1 6 -4 14 -3 18 3 6 10
40 9 51 -3 4 -3 12 -3 18 0 17 11 35 12 42 2 3 -5 11 -6 17 -2 19 12 36 12 43
2 3 -6 12 -5 21 2 12 10 16 10 24 -2 5 -8 9 -9 9 -4 0 14 80 14 80 1 0 -8 3
-8 8 0 9 13 64 13 74 -1 5 -6 8 -6 8 2 0 7 9 10 23 7 12 -2 45 -7 72 -10 75
-9 74 -9 130 -30 11 -4 22 -8 25 -9 3 -1 12 -4 20 -7 8 -4 24 -9 35 -14 11 -4
24 -6 28 -5 5 1 6 -3 3 -8 -4 -5 3 -12 14 -16 24 -8 106 -85 103 -97 -2 -4 2
-8 7 -8 6 0 10 -7 10 -15 0 -8 4 -15 9 -15 5 0 15 -22 22 -50 7 -27 15 -50 18
-50 3 0 6 -36 7 -80 0 -44 -3 -80 -6 -80 -4 0 -6 -10 -5 -22 1 -13 -7 -38 -17
-56 -11 -20 -13 -30 -6 -26 14 8 -20 -36 -37 -48 -5 -4 -7 -8 -3 -8 4 0 -10
-16 -30 -36 -42 -41 -146 -105 -174 -107 -10 -1 -18 -4 -18 -7 0 -4 -6 -7 -12
-8 -7 0 -23 -3 -35 -6 -13 -3 -33 -8 -45 -11 -13 -3 -34 -8 -48 -12 -14 -3
-173 -8 -354 -10 -263 -4 -330 -2 -337 8 -5 8 -3 17 4 21 9 6 9 8 0 8 -12 0
-12 24 0 36 3 4 3 12 -1 18 -10 17 -9 50 3 58 7 5 6 8 -1 8 -12 0 -13 44 -1
56 3 4 3 12 0 18 -12 19 -12 36 0 36 8 0 8 3 2 8 -15 11 -18 42 -3 42 8 0 9 3
3 8 -14 10 -15 52 -1 52 7 0 8 3 1 8 -6 4 -11 16 -11 27 0 11 5 23 11 27 7 5
6 8 -1 8 -14 0 -13 50 1 50 7 0 7 3 0 8 -14 10 -17 65 -3 56 7 -5 8 -2 2 7
-14 23 -15 49 -1 49 8 0 8 3 2 8 -6 4 -11 16 -11 27 0 11 5 23 11 27 6 5 6 8
-2 8 -15 0 -13 41 2 52 6 5 6 8 -2 8 -13 0 -12 18 1 39 6 10 5 12 -2 7 -13 -8
-11 14 2 46 8 17 38 20 52 5z m-1 -1417 c9 8 15 8 20 0 4 -7 12 -7 26 0 13 8
19 7 19 0 0 -6 5 -8 12 -4 17 11 58 11 58 1 0 -4 9 -3 20 3 15 8 20 8 20 -2 0
-9 3 -9 10 2 5 8 10 10 10 4 0 -12 41 -11 59 1 6 3 11 1 11 -5 0 -6 5 -8 13
-3 18 11 37 13 37 3 0 -5 14 -5 30 0 19 5 30 5 30 -1 0 -6 7 -6 19 1 14 7 20
7 23 -2 3 -8 10 -8 26 1 17 9 22 9 22 0 0 -9 3 -9 14 0 10 8 16 9 21 1 4 -6
12 -7 23 -1 10 6 23 6 34 0 12 -7 18 -6 18 1 0 6 5 8 11 4 6 -4 30 -8 53 -10
44 -3 76 -8 116 -19 14 -4 33 -7 43 -7 9 1 17 -3 17 -7 0 -4 7 -8 15 -8 21 0
145 -64 145 -75 0 -4 7 -8 16 -8 8 0 12 -4 9 -10 -3 -5 1 -10 9 -10 9 0 16 -4
16 -8 0 -8 8 -19 49 -68 5 -6 12 -25 16 -42 3 -18 10 -30 15 -27 4 2 6 -9 5
-25 -1 -17 1 -30 6 -30 5 0 9 -5 9 -11 0 -5 -5 -7 -12 -3 -7 5 -8 3 -3 -6 12
-19 14 -110 3 -110 -5 0 -6 -5 -3 -10 8 -13 -23 -109 -41 -131 -8 -8 -14 -19
-14 -22 0 -28 -141 -137 -180 -140 -11 -1 -20 -5 -20 -10 0 -5 -7 -7 -15 -3
-8 3 -15 1 -15 -4 0 -6 -12 -10 -26 -10 -14 0 -23 -3 -20 -8 2 -4 -11 -7 -30
-6 -19 1 -34 -3 -34 -8 0 -6 -8 -4 -17 3 -14 12 -16 12 -8 0 6 -11 2 -13 -19
-9 -14 3 -28 2 -31 -1 -2 -4 -31 -6 -64 -6 -34 1 -61 -2 -61 -7 0 -5 -5 -6
-12 -2 -6 4 -135 8 -287 8 -238 1 -276 3 -276 16 -1 8 4 18 10 22 7 5 7 8 -1
8 -12 0 -12 69 1 89 5 9 4 12 -2 8 -7 -4 -10 5 -9 23 0 17 5 30 11 30 7 0 7 3
0 8 -15 11 -17 32 -4 48 7 8 7 14 2 14 -13 0 -11 43 2 52 6 5 6 8 -1 8 -13 0
-14 31 -1 48 5 7 6 12 0 12 -5 0 -9 11 -9 25 0 14 5 25 11 25 7 0 7 3 0 8 -6
4 -11 16 -11 27 0 11 5 23 11 27 6 5 7 8 0 8 -6 0 -11 13 -11 30 -1 20 2 27
10 23 6 -4 5 0 -2 9 -14 17 -13 39 3 50 7 5 7 8 0 8 -6 0 -11 13 -11 30 -1 18
2 27 9 23 6 -4 7 -1 2 7 -11 19 -14 120 -2 113 5 -3 4 4 -2 16 -7 11 -9 22 -6
22 3 1 9 2 14 3 5 0 13 5 17 9 5 5 10 3 12 -3 3 -8 8 -8 17 0z"/>
<path d="M3725 4968 c1 -267 2 -283 19 -280 12 2 16 -1 10 -9 -5 -8 -3 -9 7
-3 23 14 49 15 49 1 0 -7 3 -8 8 -2 11 16 34 17 43 3 5 -7 9 -8 9 -2 0 12 38
13 58 1 7 -5 12 -4 12 2 0 12 27 10 48 -2 6 -5 18 -5 25 0 18 11 36 12 43 2 3
-6 12 -5 21 2 12 10 16 10 24 -2 5 -8 9 -9 9 -3 0 12 58 13 77 1 6 -4 14 -3
18 3 6 10 32 9 51 -3 6 -3 14 -3 18 0 12 12 61 11 68 -1 6 -8 8 -8 8 0 0 12
38 13 58 1 7 -5 12 -4 12 2 0 11 27 10 46 -2 6 -3 14 -3 18 0 11 12 76 11 69
0 -4 -6 -1 -7 8 -1 23 14 49 15 49 1 0 -7 3 -8 8 -2 10 13 103 15 95 2 -4 -6
-1 -7 8 -1 23 14 49 15 49 1 0 -7 3 -8 8 -2 11 16 34 17 43 3 5 -7 9 -8 9 -2
0 12 38 13 58 1 7 -5 12 -4 12 2 0 12 27 10 48 -2 6 -5 18 -5 25 0 18 11 36
12 43 2 3 -6 12 -5 21 2 12 10 16 10 24 -2 5 -8 9 -9 9 -3 0 12 58 13 77 1 6
-4 14 -3 18 3 6 10 32 9 51 -3 6 -3 14 -3 18 0 12 12 61 11 68 -1 6 -8 8 -8 8
0 0 12 38 13 58 1 7 -5 12 -4 12 2 0 11 27 10 46 -2 6 -3 14 -3 18 0 11 12 76
11 69 0 -4 -6 -1 -7 8 -1 23 14 49 15 49 1 0 -7 3 -8 8 -2 10 13 103 15 95 2
-4 -6 -1 -7 8 -1 23 14 49 15 49 1 0 -7 3 -8 8 -2 11 16 34 17 43 3 5 -7 9 -8
9 -2 0 12 38 13 58 1 7 -5 12 -4 12 2 0 12 27 10 48 -3 7 -4 18 -3 25 2 11 10
18 12 35 12 4 0 7 27 7 59 0 33 -4 57 -9 54 -5 -4 -6 0 -1 7 11 18 13 60 3 66
-5 3 -5 10 -1 17 10 17 9 196 -1 190 -5 -4 -5 0 0 8 13 22 16 51 3 43 -8 -4
-8 -1 -2 12 4 11 7 28 7 39 -1 11 -2 30 -3 43 l-1 22 -1123 0 -1122 0 0 -282z"/>
<path d="M4710 4369 c0 -3 -12 -5 -27 -4 -16 1 -36 -2 -45 -7 -13 -6 -18 -5
-18 4 0 9 -3 9 -8 2 -4 -6 -32 -16 -62 -22 -30 -6 -68 -16 -85 -23 -16 -7 -34
-13 -40 -13 -25 -3 -85 -28 -85 -36 0 -5 -7 -7 -15 -4 -8 4 -15 2 -15 -4 0 -9
-52 -28 -57 -20 -1 2 -8 -6 -16 -16 -8 -11 -19 -16 -25 -12 -7 4 -12 3 -12 -1
0 -5 -18 -19 -40 -33 -22 -14 -40 -28 -40 -33 0 -4 -4 -6 -8 -3 -4 3 -25 -11
-46 -30 -20 -19 -39 -34 -42 -34 -3 0 -21 -15 -39 -34 -18 -19 -36 -32 -39
-29 -3 4 -6 1 -6 -6 0 -7 -18 -30 -40 -51 -22 -21 -40 -43 -40 -49 0 -5 -6
-14 -13 -18 -17 -10 -109 -142 -111 -160 -1 -7 -8 -19 -14 -25 -7 -7 -12 -18
-12 -25 0 -7 -3 -13 -7 -13 -5 0 -13 -11 -20 -25 -8 -19 -8 -25 0 -25 8 0 7
-3 -1 -9 -15 -9 -66 -141 -54 -141 4 0 1 -4 -5 -8 -7 -4 -14 -26 -17 -47 -2
-22 -6 -47 -9 -55 -20 -52 -34 -364 -17 -375 6 -4 6 -15 0 -30 -5 -14 -6 -25
-1 -25 5 0 8 -14 7 -31 -1 -16 1 -32 5 -35 4 -2 10 -23 14 -47 4 -23 11 -50
16 -59 5 -9 10 -28 11 -42 1 -15 6 -26 11 -26 4 0 5 -4 2 -10 -3 -5 -1 -10 4
-10 6 0 10 -3 9 -7 -1 -9 9 -40 23 -65 5 -10 9 -23 9 -29 0 -6 7 -17 15 -26 9
-8 19 -28 22 -44 3 -16 9 -26 14 -23 5 3 9 -1 9 -9 0 -8 7 -20 15 -27 8 -7 12
-16 9 -21 -3 -5 -2 -9 3 -9 4 0 19 -17 33 -38 13 -20 35 -47 48 -59 13 -13 21
-23 18 -23 -3 0 9 -14 27 -31 17 -17 31 -35 29 -40 -1 -5 3 -9 8 -9 6 0 24
-13 41 -30 17 -16 57 -49 88 -72 31 -24 58 -46 59 -51 2 -4 8 -5 12 -2 5 3 16
-5 24 -17 9 -12 16 -19 16 -15 0 9 58 -20 83 -41 9 -8 17 -11 17 -7 0 4 9 0
20 -10 11 -10 20 -15 20 -10 0 4 6 3 13 -3 7 -6 26 -13 42 -16 15 -3 32 -11
37 -18 4 -7 8 -10 8 -6 0 4 19 0 42 -8 23 -8 52 -15 65 -16 13 -2 23 -5 23 -9
0 -4 11 -6 25 -4 14 1 28 -1 30 -6 3 -4 13 -8 23 -7 9 0 48 -3 86 -7 96 -11
156 -12 189 -3 16 4 27 3 27 -3 0 -6 6 -7 13 -2 6 4 19 8 27 8 40 2 127 18
143 27 12 6 17 5 17 -4 0 -9 3 -9 10 2 5 8 10 11 10 6 0 -5 7 -3 15 4 8 7 15
10 15 6 0 -4 14 0 30 9 17 9 30 13 30 9 0 -4 7 -1 15 6 8 7 15 10 15 6 0 -3
23 5 50 19 28 14 50 22 50 18 0 -5 4 -3 8 2 4 6 30 22 57 35 28 14 52 27 55
30 15 15 102 70 111 70 6 0 7 5 4 10 -3 6 -1 10 4 10 25 0 221 195 221 219 0
5 7 11 15 15 8 3 15 10 15 16 0 6 6 18 13 25 27 31 34 41 47 73 8 17 18 32 22
32 5 0 8 7 8 15 0 8 5 15 10 15 6 0 9 3 9 8 -1 7 0 11 6 30 2 4 6 17 10 30 4
12 11 22 16 22 5 0 8 3 8 8 -1 4 0 10 1 15 1 4 3 10 5 15 1 4 5 16 9 27 4 11
12 32 18 47 5 15 7 31 4 36 -3 6 1 13 9 16 10 4 14 14 11 31 -3 14 -1 25 3 25
5 0 7 11 6 25 -2 14 0 25 4 25 15 0 21 332 7 405 -4 22 -10 54 -13 70 -7 43
-11 60 -13 63 -2 1 -4 7 -5 12 -1 6 -4 12 -5 15 -1 3 -3 8 -4 13 -1 4 -5 13
-10 21 -6 9 -5 12 2 8 5 -4 1 11 -10 34 -10 22 -20 49 -21 60 -1 10 -4 19 -8
19 -4 0 -11 10 -15 23 -3 12 -14 31 -23 41 -13 15 -13 18 -1 11 13 -8 13 -7 0
9 -18 23 -38 56 -46 79 -3 9 -10 17 -15 17 -5 0 -9 7 -9 15 0 8 -4 15 -10 15
-5 0 -10 5 -10 10 0 11 -10 24 -42 61 -10 10 -18 21 -18 24 0 9 -171 175 -180
175 -6 0 -10 4 -10 8 0 5 -11 15 -25 22 -13 7 -22 17 -19 21 3 5 -1 6 -9 3 -9
-3 -22 4 -31 18 -9 12 -16 18 -16 13 0 -6 -3 -6 -8 0 -13 18 -197 113 -229
118 -10 2 -28 8 -39 15 -12 6 -24 8 -28 5 -3 -3 -6 -2 -6 3 0 8 -22 14 -67 17
-7 0 -13 3 -13 7 0 4 -17 7 -37 8 -20 1 -39 5 -42 9 -7 9 -42 12 -213 16 -71
1 -128 0 -128 -4z m192 -564 c29 -2 68 -8 87 -14 19 -6 37 -8 42 -6 4 3 10 1
14 -5 3 -5 13 -10 22 -10 8 0 29 -10 46 -22 17 -12 28 -17 24 -11 -5 8 0 8 18
0 14 -7 25 -15 25 -19 0 -5 7 -8 15 -8 8 0 15 -4 15 -10 0 -5 7 -10 15 -10 8
0 15 -4 15 -10 0 -5 7 -10 15 -10 8 0 15 -3 15 -7 0 -5 14 -17 30 -28 16 -11
30 -23 30 -27 0 -4 18 -26 41 -49 23 -23 42 -48 43 -55 1 -7 9 -21 17 -31 22
-28 39 -61 39 -78 0 -8 5 -15 11 -15 6 0 9 -7 5 -15 -3 -8 0 -15 5 -15 6 0 9
-9 6 -19 -3 -11 1 -22 8 -25 7 -2 11 -16 10 -30 -2 -14 0 -26 4 -26 8 0 9 -15
9 -130 1 -116 -1 -140 -9 -140 -3 0 -6 -8 -6 -17 0 -30 -15 -83 -24 -83 -5 0
-6 -6 -3 -14 3 -8 0 -17 -5 -21 -6 -3 -9 -11 -6 -16 4 -5 1 -9 -4 -9 -6 0 -10
-3 -9 -7 3 -13 -24 -63 -34 -63 -4 0 -7 -4 -5 -8 5 -19 -139 -182 -162 -182
-6 0 -11 -4 -11 -10 0 -5 -7 -10 -15 -10 -8 0 -15 -4 -15 -9 0 -5 -18 -17 -40
-27 -22 -10 -40 -21 -40 -25 0 -4 -8 -6 -17 -5 -10 2 -21 -2 -25 -7 -6 -11
-28 -17 -60 -20 -10 -1 -18 -5 -18 -9 0 -8 -111 -23 -147 -21 -13 1 -23 -2
-23 -8 0 -6 -5 -7 -12 -2 -7 4 -31 8 -53 9 -33 0 -79 7 -130 20 -34 8 -113 38
-132 51 -13 9 -23 12 -23 9 0 -4 -10 2 -22 14 -12 11 -27 20 -33 20 -6 0 -17
9 -25 20 -8 11 -19 20 -26 20 -16 0 -74 67 -66 76 4 4 2 4 -5 0 -16 -9 -121
148 -132 199 -2 6 -7 16 -13 23 -6 6 -8 12 -5 12 3 0 -2 21 -12 48 -9 26 -16
64 -16 85 0 20 -2 37 -6 37 -14 0 6 212 24 245 6 11 9 20 7 20 -2 0 5 24 14
53 10 28 22 52 27 52 6 0 8 4 5 9 -3 5 4 20 15 35 11 14 18 26 15 26 -3 0 6
12 19 26 14 15 23 29 22 33 -1 3 17 25 40 47 24 23 43 40 43 39 0 -4 40 29 71
58 10 9 22 17 27 17 4 0 14 5 22 12 9 7 24 15 35 16 11 2 23 9 27 15 4 7 8 9
8 4 0 -4 11 0 25 9 14 9 25 14 25 11 0 -3 20 1 44 8 24 8 47 11 50 8 3 -4 6
-2 6 3 0 5 27 9 60 9 33 0 60 4 60 8 0 5 4 5 10 2 5 -3 33 -8 62 -10z"/>
</g>
</svg>
