<svg xmlns="http://www.w3.org/2000/svg" viewBox="0 0 25 25">
  <path d="M12.1 2a10.8 10.8 0 0 0-7.5 3.3A9.4 9.4 0 0 0 2.2 10L2 11.4v2.2a11.2 11.2 0 0 0 1.1 4 9 9 0 0 0 2.6 3.1A15 15 0 0 0 7.9 22a9.5 9.5 0 0 0 1.6.6 12.6 12.6 0 0 0 5 .4l1.5-.3.3-.3v-1.7c0-.2-.2-.3-.4-.3h-.3c-.6.2-1.2.2-2.3.2a12.5 12.5 0 0 1-3-.3 9 9 0 0 1-1.6-.6 7.1 7.1 0 0 1-4-5.6A11.5 11.5 0 0 1 5 10a14.7 14.7 0 0 1 .8-2L7 6.6a7.1 7.1 0 0 1 3.4-1.9l1.2-.2a10.6 10.6 0 0 1 3.5.2l1 .3A6.7 6.7 0 0 1 20 9.2l.2 1.1V13l-.2 1-.4.7a2 2 0 0 1-.5.5c-.4.2-.8.2-1.1 0-.2-.2-.4-.5-.4-.9V11l-.1-3c0-.2-.2-.3-.4-.3a34.9 34.9 0 0 0-2.4.1c-.1.1-.2.2-.2.6v.4h-.2l-.3-.2a3 3 0 0 0-1.7-1.1l-.8-.1h-.9a3 3 0 0 0-1 .4 4 4 0 0 0-1.9 2l-.3 1c-.2.7-.2.9-.2 1.7a5.4 5.4 0 0 0 .3 2.1A5 5 0 0 0 9 17a4.4 4.4 0 0 0 1.3.7l.7.1h1.2c.4 0 .6 0 .9-.2a4 4 0 0 0 1.2-1l.3-.4c.2 0 .2 0 .4.3l.3.4.8.6 1 .3a5.8 5.8 0 0 0 2.5-.2l1.7-1c.5-.6.9-1.2 1.2-2l.3-1L23 12a12.6 12.6 0 0 0-.2-2.8l-.3-1a8.6 8.6 0 0 0-6-5.7h-.3l-.9-.3-1.8-.2h-1.4Zm.5 8c.5.2.9.4 1.1.8.2.2.3.5.4.9v2.1a2 2 0 0 1-.6 1 2 2 0 0 1-1.1.3c-.5 0-.8 0-1.1-.4l-.4-.5a4.2 4.2 0 0 1-.2-2.6l.4-.8c.2-.3.4-.5.8-.6.2-.1.5-.2.7-.1Z"/>
</svg>
