<svg
    xmlns="http://www.w3.org/2000/svg"
    width="22"
    height="24"
    viewBox="0 0 2280 1604"
>
    <path
    d="M1034,2l222,1,126,2,158,4,58,1,165,9,96,6,86,9c90.2,16.554,140.85,30.322,199,77,92.69,74.406,92.5,183.911,116,326,9.67,58.5,4.47,123.78,14,185q1.005,41,2,82,0.495,21.5,1,43V860q-1.5,51-3,102-3,63.5-6,127-4.5,50.49-9,101c-25.63,149.04-29.61,242.91-132,318-67.67,49.62-143.94,52.25-246,69q-43.5,3.495-87,7l-104,6q-60,2.505-120,5-70.5,1.995-141,4-91.485,1.005-183,2-45.99.495-92,1-104.49-1.005-209-2-102.489-2.505-205-5-53.495-1.995-107-4-73.493-4.005-147-8-48.495-3.495-97-7-52.995-7.005-106-14c-65.055-14.14-109.889-38.3-153-73-90.152-72.55-91.066-208.04-114-350q-4-56.49-8-113L4,903,3,860V747l2-75L9,564l7-96c16.093-99.32,15.57-206.408,58-279,35.652-60.995,85.326-106,155-133,73.171-28.359,168.8-22.156,257-36l84-5,87-4L773,7ZM907,466q0.5,337.466,1,675,296.475-168.48,593-337c-0.33-.667-0.67-1.333-1-2Q1203.525,634.017,907,466Z"
    />
</svg>