<svg
    xmlns="http://www.w3.org/2000/svg"
    width="24"
    height="24"
    viewBox="0 0 2000 2000"
>
    <path
    d="M642,250h511c90.83-.006,199.37-9.043,275,10,88.81,22.363,168.26,67.954,218,130,45.6,56.882,79.22,116.941,98,202,11.87,53.727,6,126.312,6,189v346c0.01,127.74,8.11,268.37-28,359-33.12,83.13-90.57,152.98-162,198-48.96,30.86-103.02,50.15-171,63-27.83,5.26-61.32,3-93,3H773c-74.677.01-155.038,4.34-213-13-116.164-34.74-198.565-100.76-255-195-58.979-98.49-55-207.82-55-365V797c-0.006-67.48-6.8-146.754,6-205,12.952-58.922,32.39-108.117,60-152,46.8-74.384,118.834-131,206-165,25.221-9.838,53.261-15.229,82-21Zm848,167c-33.34,14.031-57.01,20.508-69,55-19.84,57.066,29.4,121.562,89,111C1611.83,564.955,1606.99,414.978,1490,417ZM972,584l-43,5c-26.651,5.674-53.379,11.608-77,21C732.417,657.548,642.117,748.277,602,875c-76.777,242.53,76.975,442.19,238,509,40.636,16.86,122.866,42.99,188,32,34.94-5.89,66.89-8.52,97-18,117.51-37,208.86-120.49,256-228,13.23-30.18,22.37-63.35,30-99,18.35-85.732-4.56-179.393-30-238C1317.04,685.626,1185.44,583.327,972,584Zm9,166c151.56-2.263,235.98,80.465,264,202,10.75,46.61,2.88,104.76-12,141-36.62,89.16-105.35,138.66-214,157-44.321,7.48-88.13-7.98-116-20-94.539-40.77-188.572-157.44-143-303,23.58-75.317,76.845-131.162,147-160C929.23,757.862,958.353,758.981,981,750Z"
    />
</svg>