<svg
    xmlns="http://www.w3.org/2000/svg"
    width="22"
    height="22"
    viewBox="0 -30 384 379"
>
    <path
    d="M192 0a192 192 0 0 0-46.5 378 28 28 0 0 1-1.5-9.2v-32.9h-24.1c-13.2 0-24.8-5.6-30.5-16.1-6.3-11.7-7.4-29.5-23-40.4-4.6-3.7-1-7.8 4.3-7.2 9.8 2.7 18 9.5 25.6 19.5 7.7 10 11.3 12.3 25.6 12.3 6.9 0 17.3-.4 27-2a60.2 60.2 0 0 1 25.4-31.3C110.4 264 80 232.3 80 189c0-18.6 8-36.6 21.4-51.7-4.5-15-10-45.7 1.7-57.4a66.8 66.8 0 0 1 50.3 23.7 143.9 143.9 0 0 1 93.4 0c4.1-5 21.5-23.7 50.3-23.7 11.8 11.7 6.1 42.5 1.7 57.5A78.4 78.4 0 0 1 320 189c0 43.2-30.4 75-94.3 81.6 17.6 9.1 30.4 34.9 30.4 54.3v43.8c0 1.6-.4 2.8-.6 4.2A191.9 191.9 0 0 0 192 0Z"
    />
</svg>