<svg xmlns="http://www.w3.org/2000/svg" viewBox="0 0 2000 2000">
  <path d="M642 250h511c91 0 199-9 275 10 89 22 168 68 218 130 46 57 79 117 98 202 12 54 6 126 6 189v346c0 128 8 268-28 359a416 416 0 0 1-333 261c-28 5-61 3-93 3H773c-75 0-155 4-213-13a427 427 0 0 1-255-195c-59-98-55-208-55-365V797c0-67-7-147 6-205a420 420 0 0 1 266-317c25-10 53-15 82-21Zm848 167c-33 14-57 21-69 55-20 57 29 122 89 111a84 84 0 0 0-20-166ZM972 584l-43 5a416 416 0 0 0-89 795c41 17 123 43 188 32 35-6 67-9 97-18a412 412 0 0 0 256-565c-64-147-196-250-409-249Zm9 166c152-2 236 80 264 202 11 47 3 105-12 141-37 89-105 139-214 157-44 7-88-8-116-20a249 249 0 0 1 4-463c22-9 51-8 74-17Z"/>
</svg>
