<svg xmlns="http://www.w3.org/2000/svg" viewBox="0 0 2280 1604">
  <path d="m1034 2 222 1 126 2 158 4 58 1 165 9 96 6 86 9c90 17 141 30 199 77 93 74 93 184 116 326 10 59 4 124 14 185l2 82 1 43v113l-3 102-6 127-9 101c-26 149-30 243-132 318-68 50-144 52-246 69l-87 7-104 6-120 5-141 4-183 2-92 1-209-2-205-5-107-4-147-8-97-7-106-14c-65-14-110-38-153-73-90-73-91-208-114-350l-8-113-4-123-1-43V747l2-75 4-108 7-96c16-99 16-206 58-279 36-61 85-106 155-133 73-28 169-22 257-36l84-5 87-4 116-4ZM907 466l1 675 593-337-1-2-593-336Z"/>
</svg>