<svg
xmlns="http://www.w3.org/2000/svg"
viewBox="0 0 70 70"
>
    <path
        id="enveloppe"
        fill-rule="evenodd"
        clip-rule="evenodd"
        d="M19.9175 21.0009L34.6675 21.01L49.4175 21.0009C49.8031 20.9914 50.1866 21.0604 50.5447 21.2037C50.9029 21.3469 51.2282 21.5614 51.5009 21.8341C51.7736 22.1069 51.9881 22.4322 52.1314 22.7903C52.2746 23.1484 52.3436 23.5319 52.3342 23.9175V45.7509C52.3436 46.1364 52.2746 46.5199 52.1314 46.8781C51.9881 47.2362 51.7736 47.5615 51.5009 47.8342C51.2282 48.107 50.9029 48.3215 50.5447 48.4647C50.1866 48.6079 49.8031 48.6769 49.4175 48.6675H19.9175C19.5319 48.6769 19.1484 48.6079 18.7903 48.4647C18.4322 48.3215 18.1069 48.107 17.8341 47.8342C17.5614 47.5615 17.3469 47.2362 17.2037 46.8781C17.0604 46.5199 16.9914 46.1364 17.0009 45.7509V23.9175C16.9914 23.5319 17.0604 23.1484 17.2037 22.7903C17.3469 22.4322 17.5614 22.1069 17.8341 21.8341C18.1069 21.5614 18.4322 21.3469 18.7903 21.2037C19.1484 21.0604 19.5319 20.9914 19.9175 21.0009ZM20.3342 24.3342L34.6675 24.32L49.0009 24.3342L34.6675 33.2509L20.3342 24.3342ZM20.3342 45.3342H49.0009V28.35L34.6675 37L20.3342 28.35V45.3342Z"
    />
    <path
        id="ouverture"
        d="M 20.35 24.35 L 34.68 33.27 L 49 24.35 V 28.35 L 34.68 37 L 20.35 28.35 V 24.35 Z"
    />
    <path
        id="backDoc"
        class="rectangle"
        d="M 27.35 31.7 V 31.7 H 42 V 31.7 H 27.35 Z"
    />
    <path
        id="contourDoc"
        d="M 24 31.7 V 31.7 H 45.35 V 31.7 H 42 V 31.7 H 27.35 V 31.7 H 24"
    />
    <path
        id="textMail"
        class="spyne opacity-0"
        d="m25.87 5.9 3.182-.575-.362-2.001-3.76.68-.282-1.556L30.432 1.4l1.52 8.395-5.795 1.049-.283-1.563 3.77-.682-.32-1.77-3.183.576L25.87 5.9Zm-3.568 4.505-.431-.61c-.098.722-.474 1.275-1.128 1.657-.692.405-1.32.403-1.884-.005-.05.767-.425 1.355-1.126 1.765-1.11.649-2.072.31-2.887-1.013l-2.082-3.561 1.71-1 2.02 3.455c.163.28.33.456.5.529.169.073.378.036.628-.11.337-.197.5-.494.49-.89l-.046-.068-2.186-3.738 1.71-1 2.014 3.445c.167.286.334.467.5.542.166.075.377.038.633-.112.328-.192.49-.488.486-.888l-2.227-3.81 1.704-.996 3.2 5.473-1.598.935Zm-14.39 4.017c.144.028.33.1.557.218-.12-.571.028-1.108.444-1.61.381-.46.844-.737 1.387-.83.546-.09 1.03.04 1.451.388.53.439.768.966.715 1.58-.053.616-.389 1.297-1.007 2.043l-.389.47.258.212c.448.372.833.363 1.154-.025.3-.36.271-.688-.084-.982l1.26-1.521c.472.391.69.909.653 1.553-.039.647-.316 1.282-.832 1.905s-1.075.989-1.678 1.098c-.603.11-1.172-.05-1.71-.48l-2.161-1.79c-.453-.365-.854-.58-1.2-.645l-.078-.063 1.26-1.521Zm1.781-.13c-.157.19-.246.38-.267.57a.986.986 0 0 0 .051.5l.781.646.366-.443c.439-.53.42-.99-.055-1.384a.574.574 0 0 0-.454-.14.664.664 0 0 0-.422.251Zm-5.889 7.347.824-1.801 5.765 2.638-.824 1.801-5.765-2.638Zm8.124 1.41a.881.881 0 0 1 .502.566c.079.26.05.536-.084.831-.135.295-.326.497-.574.607a.881.881 0 0 1-.756-.01.881.881 0 0 1-.502-.565c-.079-.26-.05-.537.084-.832.135-.294.327-.497.575-.607.248-.11.5-.106.755.01ZM1.734 28.796l.402-1.94 8.813 1.826-.402 1.94-8.813-1.826Zm2.29 12.724c.069.305.034.579-.103.822a.904.904 0 0 1-.624.458.922.922 0 0 1-.766-.146 1.131 1.131 0 0 1-.439-.7c-.07-.309-.035-.585.102-.828a.924.924 0 0 1 .626-.452.924.924 0 0 1 .758.142c.228.16.377.395.446.704Zm9.633 14.123-2.042-2.508-1.577 1.283 2.412 2.963-1.227.999-3.71-4.558 6.616-5.386 3.718 4.567-1.232 1.002-2.419-2.972-1.395 1.136 2.042 2.508-1.186.966Zm5.667.947-.326.672c.68-.263 1.345-.2 1.996.188.688.41.99.96.906 1.65.695-.326 1.391-.282 2.09.134 1.103.658 1.272 1.664.506 3.018l-2.111 3.543-1.702-1.014 2.05-3.438c.165-.278.24-.51.221-.693-.018-.183-.15-.349-.4-.497-.335-.2-.674-.2-1.016.001l-.037.073-2.217 3.72-1.701-1.014 2.043-3.428c.17-.285.247-.518.233-.7-.015-.181-.15-.348-.405-.5-.325-.194-.662-.193-1.011.004l-2.26 3.79-1.695-1.011 3.245-5.446 1.59.948Zm10.469 10.659a2.226 2.226 0 0 1-.078-.593c-.442.38-.984.51-1.625.39-.587-.112-1.052-.384-1.396-.815a1.734 1.734 0 0 1-.361-1.458c.128-.675.474-1.138 1.039-1.389.564-.25 1.322-.286 2.274-.105l.598.113.063-.328c.108-.572-.085-.904-.58-.998-.46-.088-.734.095-.82.548l-1.94-.368c.115-.603.463-1.044 1.044-1.323.586-.279 1.276-.342 2.07-.192.795.151 1.386.464 1.773.939.387.475.522 1.051.405 1.729l-.523 2.757c-.1.574-.096 1.028.016 1.363l-.019.098-1.94-.368Zm-.974-1.497c.242.046.451.032.628-.042a.987.987 0 0 0 .412-.285l.189-.996-.564-.108c-.676-.128-1.07.112-1.186.718a.575.575 0 0 0 .097.465c.098.13.24.213.424.248Zm9.277 1.608-1.974.148-.476-6.322 1.975-.149.475 6.322Zm-2.689-7.796a.881.881 0 0 1 .252-.712c.19-.195.445-.304.769-.328.323-.025.593.045.809.21a.882.882 0 0 1 .355.666.881.881 0 0 1-.252.712c-.189.195-.445.304-.768.328-.324.025-.593-.045-.81-.21a.882.882 0 0 1-.355-.666Zm9.956 6.149-1.892.586-2.66-8.598 1.892-.586 2.66 8.598Zm10.034-8.152c.234-.207.49-.31.77-.306.277 0 .511.108.703.325a.922.922 0 0 1 .241.74 1.131 1.131 0 0 1-.4.724c-.237.21-.495.313-.775.31a.924.924 0 0 1-.698-.329.923.923 0 0 1-.242-.733c.03-.277.164-.52.401-.73Zm7.712-15.257-1.21 3 1.886.76 1.429-3.543 1.467.592-2.198 5.45-7.912-3.19 2.202-5.462 1.473.594-1.433 3.554 1.668.673 1.21-3 1.418.572ZM61.2 36.885l.746-.04c-.558-.468-.825-1.08-.8-1.838.027-.8.363-1.33 1.008-1.59-.622-.45-.919-1.082-.892-1.894.043-1.285.842-1.918 2.397-1.902l4.122.137-.066 1.98-4-.133c-.323-.011-.561.036-.713.14-.152.104-.233.301-.243.59-.013.39.151.687.492.89l.083-.003 4.327.144-.066 1.98-3.988-.134c-.331-.01-.573.034-.725.134-.152.1-.233.3-.243.596-.013.379.152.674.492.884l4.41.147-.066 1.974-6.336-.211.062-1.85Zm4.275-14.315c-.1.106-.261.225-.481.354.547.203.922.615 1.125 1.235.186.568.174 1.106-.037 1.615-.215.51-.583.85-1.102 1.021-.654.214-1.227.135-1.719-.238s-.889-1.02-1.19-1.94l-.19-.58-.318.104c-.553.182-.751.512-.594.99.146.446.438.597.876.453l.615 1.877c-.583.19-1.137.099-1.663-.276-.526-.378-.916-.951-1.168-1.72-.251-.768-.263-1.436-.034-2.005.229-.568.668-.965 1.318-1.19l2.667-.874c.55-.189.946-.413 1.186-.672l.094-.031.615 1.876Zm-.84 1.576a1.086 1.086 0 0 0-.34-.53.986.986 0 0 0-.449-.223l-.963.316.179.545c.214.654.614.884 1.2.692a.575.575 0 0 0 .362-.31.664.664 0 0 0 .011-.49Zm-3.075-8.9 1.084 1.658-5.305 3.47-1.084-1.658 5.305-3.47Zm-5.525 6.12a.881.881 0 0 1-.746.124c-.261-.072-.48-.243-.658-.514-.178-.272-.247-.542-.208-.81a.881.881 0 0 1 .412-.634.881.881 0 0 1 .745-.123c.262.072.482.243.66.515.176.27.246.54.206.81a.88.88 0 0 1-.411.632Zm.574-11.687 1.426 1.374-6.243 6.482-1.426-1.374 6.243-6.482ZM44.623 4.831a1.117 1.117 0 0 1-.64-.526.904.904 0 0 1-.055-.772.922.922 0 0 1 .532-.57c.257-.103.532-.102.827.002.298.106.513.282.645.528a.924.924 0 0 1 .05.77.924.924 0 0 1-.524.567c-.258.107-.536.107-.834.001Z"
    />
</svg>