<svg
xmlns="http://www.w3.org/2000/svg"
viewBox="0 0 70 70"
>
    <path
        id="lens1"
        d="M35 26.667c-4.595 0-8.333 3.738-8.333 8.333 0 4.595 3.738 8.333 8.333 8.333 4.595 0 8.333-3.738 8.333-8.333 0-4.595-3.738-8.333-8.333-8.333ZM35 30c2.757 0 5 2.243 5 5s-2.243 5-5 5-5-2.243-5-5 2.243-5 5-5Z"
    />
    <path id="lens2" />
    <rect class="rectangle" width="70" height="22" />
    <rect class="rectangle" y="48" width="70" height="22" />
    <path
        id="box-insta"
        d="M28.333 20C23.738 20 20 23.738 20 28.333v13.334C20 46.262 23.738 50 28.333 50h13.334C46.262 50 50 46.262 50 41.667V28.333C50 23.738 46.262 20 41.667 20H28.333Zm0 3.333h13.334c2.756 0 5 2.244 5 5v13.334c0 2.756-2.244 5-5 5H28.333c-2.756 0-5-2.244-5-5V28.333c0-2.756 2.244-5 5-5Z"
    />
    <path
        id="dot"
        d="M43.333 25a1.667 1.667 0 1 0 0 3.333 1.667 1.667 0 0 0 0-3.333Z"
    />
    <path
        id="textInsta"
        class="spyne opacity-0"
        d="m28.012 2.048 2.026-.322 1.34 8.425-2.024.323-1.341-8.426ZM23.7 10.06l-.368-.65c-.16.705-.588 1.217-1.288 1.537-.6.275-1.13.3-1.59.077-.462-.223-.863-.692-1.204-1.408l-1.699-3.714 1.801-.824 1.665 3.64c.133.29.29.477.468.558.181.085.426.057.735-.085.352-.16.55-.418.593-.774l-1.862-4.07 1.795-.822 2.638 5.765-1.684.77Zm-11.069 2.093c.113.124.27.164.467.12.199-.043.517-.19.954-.44.438-.251.834-.42 1.189-.505.358-.083.684-.087.98-.013.295.075.553.233.774.476.392.43.537.945.434 1.546-.1.604-.437 1.168-1.011 1.691-.618.563-1.242.876-1.873.938-.63.062-1.154-.135-1.57-.591l1.464-1.334c.342.375.711.382 1.107.022a.79.79 0 0 0 .267-.481.527.527 0 0 0-.133-.459c-.118-.13-.277-.177-.478-.142-.2.035-.463.153-.788.353-.328.204-.63.365-.906.485-.925.4-1.674.286-2.245-.34-.39-.428-.516-.95-.38-1.565.134-.613.503-1.195 1.106-1.745.401-.365.825-.62 1.271-.762a2.43 2.43 0 0 1 1.273-.082c.403.088.729.269.979.543l-1.364 1.243c-.203-.21-.42-.304-.65-.279-.229.028-.451.141-.668.338-.199.182-.31.358-.335.528a.522.522 0 0 0 .136.455Zm.038 9.986-1.346-.821-.543.89-1.17-.713.542-.89-2.476-1.51c-.203-.125-.368-.174-.492-.15-.125.025-.254.145-.386.362a2.898 2.898 0 0 0-.226.439l-1.206-.735c.089-.363.233-.71.435-1.04.354-.58.752-.925 1.194-1.035.442-.11.942.005 1.499.344l2.686 1.638.421-.69 1.17.714-.42.69 1.346.82-1.028 1.686ZM2.353 27.18c.143-.035.342-.046.597-.034-.346-.47-.435-1.019-.265-1.649.156-.577.461-1.02.917-1.33.46-.31.953-.393 1.481-.25.664.179 1.1.56 1.307 1.14.207.583.185 1.341-.067 2.277l-.16.588.323.087c.562.151.909-.016 1.04-.503.122-.452-.04-.738-.484-.858l.514-1.907c.592.16 1.005.54 1.24 1.142.233.605.244 1.297.034 2.078-.21.78-.568 1.346-1.07 1.696-.503.35-1.088.441-1.755.273l-2.71-.73c-.564-.144-1.017-.174-1.36-.088l-.096-.026.514-1.906Zm1.566-.858a1.09 1.09 0 0 0-.006.63c.06.185.144.33.254.431l.979.264.15-.554c.178-.664-.03-1.076-.626-1.237a.575.575 0 0 0-.472.061.664.664 0 0 0-.279.404Zm.366 14.842c.066.306.03.58-.11.822a.904.904 0 0 1-.626.454.922.922 0 0 1-.764-.151 1.131 1.131 0 0 1-.435-.703c-.068-.31-.032-.585.107-.827a.924.924 0 0 1 .628-.449.924.924 0 0 1 .758.147c.227.163.374.398.442.707Zm4.902 14.199-1.248-1.628 6.773-5.188 1.247 1.628-6.772 5.188Zm9.099-.019-.397.633c.695-.195 1.35-.061 1.965.402.527.397.801.851.823 1.361.024.513-.197 1.09-.665 1.73l-2.458 3.261-1.582-1.192 2.409-3.196c.192-.256.282-.482.268-.678-.01-.199-.152-.4-.424-.605-.309-.233-.63-.284-.963-.154l-2.694 3.575-1.577-1.188 3.816-5.063 1.479 1.114Zm7.106 8.74c.056-.158.017-.315-.116-.468-.132-.154-.413-.364-.841-.63-.429-.265-.765-.533-1.01-.805a2.066 2.066 0 0 1-.477-.855 1.546 1.546 0 0 1 .05-.907c.191-.55.576-.923 1.153-1.118.579-.2 1.235-.171 1.969.085.79.275 1.361.676 1.716 1.2.354.526.43 1.08.226 1.662l-1.87-.652c.168-.48-.001-.808-.506-.984a.787.787 0 0 0-.55-.006.527.527 0 0 0-.34.334c-.059.166-.024.33.102.49.126.16.355.334.685.524.335.191.62.38.858.566.792.624 1.048 1.336.768 2.136-.19.546-.589.906-1.195 1.079-.603.174-1.29.127-2.06-.142a3.448 3.448 0 0 1-1.276-.756 2.43 2.43 0 0 1-.678-1.08 1.804 1.804 0 0 1 .012-1.12l1.743.609c-.09.279-.068.514.064.705.133.187.338.329.615.425.254.09.462.104.624.044a.522.522 0 0 0 .334-.336Zm8.765-4.784-.081 1.574 1.041.054-.07 1.37-1.042-.055-.15 2.897c-.012.238.022.406.103.504.081.098.249.154.502.167.195.01.36.007.493-.01l-.072 1.41a3.61 3.61 0 0 1-1.121.112c-.679-.035-1.172-.22-1.479-.557-.307-.337-.444-.83-.41-1.482l.162-3.143-.807-.041.07-1.37.808.042.081-1.574 1.972.102Zm9.343 6.675a2.23 2.23 0 0 1-.314-.51c-.248.529-.69.868-1.324 1.018-.582.138-1.117.08-1.607-.173a1.734 1.734 0 0 1-.925-1.184c-.158-.67-.03-1.233.383-1.693.413-.459 1.09-.8 2.033-1.023l.593-.14-.077-.325c-.134-.567-.446-.792-.936-.676-.456.108-.631.387-.525.835l-1.922.455c-.141-.597-.003-1.141.414-1.633.422-.494 1.026-.833 1.812-1.02.787-.186 1.454-.141 2.001.135.547.276.906.747 1.075 1.413l.647 2.731c.142.565.332.977.57 1.238l.023.097-1.921.455Zm-1.5-.97c.24-.056.425-.154.556-.294a.986.986 0 0 0 .26-.429l-.234-.986-.558.132c-.67.159-.933.538-.79 1.139a.574.574 0 0 0 .277.386.664.664 0 0 0 .489.052Zm12.881-7.383c.237-.204.495-.302.774-.295.277.004.51.116.698.335a.921.921 0 0 1 .23.744 1.131 1.131 0 0 1-.41.717c-.24.207-.5.306-.78.299a.924.924 0 0 1-.693-.339.924.924 0 0 1-.23-.736c.034-.277.171-.519.411-.725Zm10.156-11.067-.838 1.871-7.786-3.488.839-1.872 7.785 3.489Zm-4.346-7.995.745.048c-.502-.518-.696-1.158-.58-1.919.098-.653.367-1.11.805-1.371.44-.266 1.052-.345 1.837-.238l4.039.61-.296 1.958-3.957-.598c-.317-.048-.558-.019-.724.086-.17.105-.28.325-.331.661-.058.383.05.69.323.92l4.426.67-.295 1.952-6.269-.947.277-1.831Zm4.306-10.409c-.165.027-.284.136-.357.325-.072.19-.123.537-.153 1.04-.029.503-.105.927-.227 1.271-.127.345-.302.62-.526.827a1.546 1.546 0 0 1-.822.388c-.574.092-1.085-.069-1.532-.483-.45-.414-.738-1.005-.861-1.772-.134-.825-.054-1.519.24-2.08.293-.562.744-.892 1.353-.99l.316 1.955c-.502.08-.71.385-.624.913a.787.787 0 0 0 .256.487.524.524 0 0 0 .456.14c.174-.028.3-.135.381-.322.08-.188.126-.472.136-.853.009-.385.039-.727.09-1.024.172-.993.676-1.557 1.513-1.692.57-.092 1.077.087 1.517.538.44.448.726 1.074.856 1.88.086.536.067 1.03-.058 1.481a2.43 2.43 0 0 1-.628 1.11 1.804 1.804 0 0 1-.99.523l-.294-1.822c.288-.055.484-.185.59-.392.1-.207.128-.454.081-.744-.042-.266-.129-.456-.258-.57a.522.522 0 0 0-.455-.134Zm-8.378-5.433 1.423-.677-.448-.942 1.238-.589.448.942 2.62-1.247c.214-.102.346-.212.393-.33.048-.118.017-.291-.092-.52a2.903 2.903 0 0 0-.243-.43l1.275-.607c.255.272.466.583.632.932.292.614.363 1.136.213 1.567-.15.43-.52.785-1.108 1.066l-2.841 1.352.347.73-1.238.59-.347-.731-1.423.677-.85-1.783Zm1.426-11.393c-.05.139-.15.311-.3.519.583-.034 1.092.193 1.526.68.398.446.602.945.612 1.496a1.734 1.734 0 0 1-.602 1.377c-.513.457-1.07.613-1.67.469-.6-.145-1.223-.58-1.867-1.302l-.406-.455-.25.222c-.434.388-.483.77-.148 1.146.312.35.64.37.984.064l1.315 1.474c-.458.408-1.003.545-1.634.412-.634-.135-1.22-.505-1.759-1.108-.538-.604-.816-1.212-.833-1.824-.018-.612.226-1.152.731-1.618l2.095-1.869c.429-.393.701-.756.817-1.09l.074-.066 1.315 1.473Zm-.14 1.781a1.087 1.087 0 0 0-.523-.35.985.985 0 0 0-.5-.024l-.757.675.382.428c.458.513.917.565 1.378.154a.575.575 0 0 0 .207-.428.664.664 0 0 0-.186-.455ZM45.283 5.29a1.117 1.117 0 0 1-.628-.541.904.904 0 0 1-.038-.773.922.922 0 0 1 .545-.558c.26-.097.535-.09.827.021.295.113.506.294.633.543a.924.924 0 0 1 .032.77.924.924 0 0 1-.538.554c-.26.102-.538.096-.833-.017Z"
    />
</svg>