<svg
xmlns="http://www.w3.org/2000/svg"
viewBox="0 1.5 67 68"
>
    <path
        id="mainGit"
        d="M31.3498 39.7438C30.1679 40.3612 29.2009 41.6693 28.6416 43.0899C27.6012 43.2536 26.4961 43.2963 25.7577 43.2963C24.2347 43.2963 23.851 43.0541 23.0358 41.9848C22.2172 40.9172 21.3474 40.1975 20.2986 39.9007C19.7307 39.8411 19.3555 40.2828 19.8484 40.6699C21.5095 41.833 21.6254 43.7345 22.2957 44.9778C22.8994 46.0966 24.1443 46.6986 25.5445 46.6986C25.8941 46.6986 27.2857 46.6986 28.1163 46.6986V50.1964C28.1163 50.5938 28.1163 51.1822 28.1163 51.1822C28.1163 51.1822 31.6719 51.7986 33.8721 51.8217C36.2988 51.8472 40.0543 51.1907 40.0543 51.1907V50.1964V45.5338C40.0543 43.4651 38.6882 40.7194 36.8157 39.7421M31.3498 39.7438C24.5349 39.0429 21.2826 35.6525 21.2826 31.0496C21.2826 29.0679 22.1268 27.151 23.5611 25.5359C23.0904 23.9328 22.4986 20.6635 23.7419 19.4186C26.8082 19.4186 28.662 21.4071 29.1071 21.9443C30.6352 21.4207 32.3133 21.124 34.0767 21.124C35.8436 21.124 37.5285 21.4207 39.06 21.9477C39.5 21.4139 41.3555 19.4186 44.4287 19.4186C45.6771 20.6652 45.0785 23.9482 44.6026 25.5479C46.0284 27.1595 46.8675 29.0713 46.8675 31.0496C46.8675 35.6491 43.6203 39.0378 36.8157 39.7421M31.3498 39.7438C33.4285 39.9588 34.6278 39.9484 36.8157 39.7421"
        stroke-width="3"
        fill="none"
    />

    <path
        id="moust_left_bt"
        d="M21.0478 33.8564C21.3493 33.2948 21.5137 33.1406 21.8 32.8599"
        stroke-width="1.49"
    />
    <path
        id="moust_left_tp"
        d="M21 31.9554C21.239 31.7841 21.4771 31.6414 21.7668 31.5997"
        stroke-width="1.49"
    />

    <path
        id="moust_right_bt"
        d="M46.9722 34.3632C46.7969 33.772 46.7013 33.6097 46.5349 33.3142"
        stroke-width="1.49"
    />
    <path
        id="moust_right_tp"
        d="M47 32.3624C46.8611 32.1821 46.7226 32.0319 46.5542 31.988"
        stroke-width="1.49"
    />

    <path
        id="left_eye"
        class="opacity-0"
        d="M31.5272 31.0569C31.2573 31.0807 29.9106 31.0969 28.5193 31.0931C27.1279 31.0893 26.2188 31.0669 26.4886 31.0431C26.7585 31.0193 28.1052 31.0031 29.4966 31.0069C28.7738 31.0197 28.9808 31.0359 29.3421 31.046C29.6546 31.0547 30.5788 31.0642 31.5272 31.0569Z"
    />
    <path
        id="right_eye"
        class="opacity-0"
        d="M42.783 31.0569C42.5131 31.0807 41.1664 31.0969 39.7751 31.0931C38.3837 31.0893 37.4746 31.0669 37.7445 31.0431C38.0143 31.0193 39.361 31.0031 40.7524 31.0069C40.0296 31.0197 40.2366 31.0359 40.5979 31.046C40.9104 31.0547 41.8347 31.0642 42.783 31.0569Z"
    />

    <path
        id="textGit"
        stroke="none"
        class="opacity-1 origin-center animate-[15s_linear_infinite_spin] opacity-0"
        d="m25 6.6-.5-3.4c0-.2.3-.4.5-.6l1-.7 1.6-.4H29a3.3 3.3 0 0 1 2.3 1.8c.2.5.4 1 .5 1.7v.4c.2.7.2 1.3 0 1.8 0 .6-.2 1-.5 1.4-.2.4-.6.7-1 1-.4.2-.8.4-1.4.5L27 10c-.5-.2-1-.5-1.2-.8-.4-.4-.6-.9-.7-1.4l1.9-.3.3.6.5.4h.8c.3 0 .5 0 .7-.2l.4-.6.2-.8V5.8l-.1-.5-.3-1c-.1-.4-.3-.6-.5-.8-.1-.2-.3-.3-.6-.4a2 2 0 0 0-.8 0l-.6.1-.3.2-.2.2.2 1.3 1.4-.2.2 1.4-3.4.5Zm-3.2 3.6-2.7-5.7 1.8-.8 2.7 5.7-1.8.8Zm2.6.6v.7c-.1.3-.3.5-.6.6-.3.1-.6.2-.8.1a.9.9 0 0 1-.6-.5.9.9 0 0 1 0-.7c.1-.3.3-.5.6-.6.3-.2.6-.2.8-.1.3 0 .5.2.6.5Zm-9 3.9-.9-1 2.9-2.5.9 1-2.9 2.5Zm3.3-.8-1.5 1.3-3.8-4.3a1 1 0 0 0-.3-.3h-.3l-.3.2a5.5 5.5 0 0 0-.3.4l-1-1.1a3.2 3.2 0 0 1 .8-.9l1-.5c.2-.1.5 0 .8 0l1 .7 3.9 4.5Zm-5.2 7.4L6 16.6l1-1.7 7.7 4.7-1 1.7ZM9 18l.2-.3 1 .7c.3.3.5.6.6 1 .1.3.2.6.1.9 0 .3 0 .6-.3 1l-.5.6-.7.3a2 2 0 0 1-1 0l-1-.5-3.3-2L5 18l3.4 2c.2.2.4.2.5.2h.4l.4-.4.1-.6V19l-.4-.4-.5-.4Zm2.1 8-.4 2-7.2-2-1.4-.5.4-1.7 8.6 2.2Zm-7 4.2-1.3-.5A3 3 0 0 1 2 29a2 2 0 0 1-.5-.9 2.4 2.4 0 0 1 .5-2l.9-.4 1-.2h1.5l1.1.7.9.6.5.9v1l-.5 1a2 2 0 0 1-.9.5 3 3 0 0 1-1 .2c-.5 0-.9 0-1.3-.2Zm.4-1.9h.2l.6.2h.5l.5-.2.2-.5v-.5l-.1-.4-.5-.3-.6-.2-.4-.1L4 26a1 1 0 0 0-.6.2L3 27v.6l.3.3.5.3.6.2ZM2.4 39.9l.8.1.4.7-.1.9a1 1 0 0 1-.6.4 1 1 0 0 1-.8-.2 1 1 0 0 1-.4-.7v-.8c.2-.2.4-.4.7-.4Zm12.4 15.7-2.7 2.2a3 3 0 0 1-.8-.2c-.3-.1-.7-.3-1-.6L9 56c-.4-.4-.6-.9-.8-1.4a3.3 3.3 0 0 1 .4-2.8l1.2-1.3.4-.3 1.5-.9c.5-.2 1-.2 1.5-.2s1 .2 1.3.4c.4.2.8.5 1.2 1 .4.5.8 1.1.9 1.6l-.1 1.5a3 3 0 0 1-.9 1.3l-1.2-1.5.4-.6v-.6a1 1 0 0 0-.3-.7c-.2-.2-.3-.4-.6-.4-.2-.1-.4-.2-.6-.1-.3 0-.6 0-.9.2a5 5 0 0 0-.9.6l-.4.3-.8.8-.4.8v.7l.4.7.4.4.3.2.3.1 1-.8-.9-1.1 1.1-.9 2.2 2.7Zm4.7.9L16 61.7l-1.6-1.1 3.5-5.2 1.6 1Zm-.8-2.5c.2-.2.4-.4.7-.4.2 0 .5 0 .8.2l.5.7c0 .2 0 .5-.2.7-.1.2-.4.4-.6.4-.3 0-.6 0-.8-.2-.3-.2-.4-.4-.5-.7l.1-.7Zm8 5.7-.5 1.3-3.6-1.2.5-1.3 3.6 1.2Zm-2.4-2.4 1.9.6-1.9 5.5v.6l.4.2a5.4 5.4 0 0 0 .5.1l-.4 1.4a3.2 3.2 0 0 1-1.1-.2c-.4-.2-.8-.3-1-.6-.2-.2-.4-.4-.4-.8l.1-1 2-5.8Zm9 .7-.3 9h-2l.3-9h2Zm-.4 5.6h-.5l.2-1.2.5-1 .8-.6a2 2 0 0 1 .9-.2c.3 0 .6 0 .8.2.3 0 .5.2.7.4l.4.8c.1.3.2.7.1 1.2V67h-2v-4.6l-.3-.3h-1.1l-.3.3-.2.5v.6Zm5.7-5.9 1.9-.5 2 7 .2 1.6-1.7.5-2.4-8.6Zm7.1 4L46 63c0 .4 0 .8-.2 1.1a2 2 0 0 1-.5.9 2.4 2.4 0 0 1-2 .5 2 2 0 0 1-.9-.5l-.7-.8-.6-1.1v-2.5l.5-.9c.2-.2.5-.4.9-.5h1.1c.4 0 .7.2 1 .4l.6.8.5 1.2Zm-1.8.6v-.1l-.3-.7a2 2 0 0 0-.3-.4.9.9 0 0 0-.3-.3h-.6l-.4.2-.3.4v.5l.1.7.1.4.3.8.5.4h.7c.2 0 .3-.2.4-.3.2-.1.2-.2.2-.4v-.6l-.1-.6Zm11.1-4a1 1 0 0 1-.3-.8c0-.2.1-.5.4-.7.2-.2.5-.3.7-.3.3 0 .5.1.7.3.2.2.3.5.3.7 0 .3-.2.5-.4.8-.2.2-.5.3-.8.3a1 1 0 0 1-.7-.3Zm7.2-18.7 3.3 1.3.2.8v1.2c0 .4 0 1-.3 1.5l-.8 1.3a3.3 3.3 0 0 1-2.6 1.1l-1.8-.3-.4-.2c-.6-.2-1.1-.5-1.5-.9-.5-.3-.8-.7-1-1.1l-.3-1.4c0-.5 0-1 .2-1.4.3-.8.6-1.3 1-1.7.4-.4.9-.6 1.4-.7l1.5.1-.7 1.9a2 2 0 0 0-.7 0 1 1 0 0 0-.6.2l-.4.6v.7c0 .3 0 .5.2.7l.6.6 1 .4.5.2 1 .3h.9c.3 0 .5-.2.6-.4l.5-.7.1-.5v-.7l-1.3-.5-.5 1.4-1.3-.5 1.2-3.3Zm-1.6-4.5 6.3.4-.1 2-6.3-.4.1-2Zm-1.7 2a.9.9 0 0 1-.7-.4c-.2-.2-.2-.5-.2-.8 0-.3.1-.6.3-.8l.7-.2c.3 0 .5.1.7.3.2.3.2.5.2.8 0 .4-.1.6-.3.8a1 1 0 0 1-.7.3Zm.9-9.8 1.4-.3.7 3.7-1.3.3-.8-3.7Zm-.9 3.2-.4-1.9 5.7-1.1.3-.2.2-.2v-.4a5.4 5.4 0 0 0-.2-.5L66 26a3.2 3.2 0 0 1 .4 1v1c0 .4-.2.7-.5.9-.2.2-.5.3-1 .4L59 30.5ZM55 22.4l7.9-4.3 1 1.8-7.9 4.3-1-1.8Zm5-2.4.3.4-1.2.4a3 3 0 0 1-1 0c-.4 0-.7 0-1-.3a2 2 0 0 1-.6-.7c-.2-.2-.3-.5-.3-.8v-.8l.5-.7c.2-.3.6-.5 1-.7l3.4-2 1 1.8-3.5 2c-.2 0-.4.2-.5.3 0 .1-.1.3 0 .4v.5l.4.4.5.1h.5l.5-.3Zm-8-2-1.3-1.3 5-5.3 1.3-1 1.2 1.2-6.1 6.4Zm-.2-8.1h.1l1-1a3 3 0 0 1 1-.3h1a2.4 2.4 0 0 1 1.5 1.5v1l-.3 1-.7 1-.1.1-1 .7a4 4 0 0 1-1 .5 1.8 1.8 0 0 1-1.8-.5c-.4-.3-.6-.6-.7-1a2 2 0 0 1-.1-1c0-.3.2-.6.4-1l.7-1Zm1.5 1.3-.5.6a2 2 0 0 0-.2.4v.5c0 .2 0 .3.2.4.1.2.3.3.4.3h.5c.1 0 .3 0 .4-.2.2 0 .4-.2.5-.4l.3-.3c.3-.2.4-.5.5-.7.2-.2.2-.4.2-.6 0-.2-.2-.4-.4-.6a1 1 0 0 0-.4-.2h-.5l-.5.3-.5.5Zm-9-7.6a1 1 0 0 1-.5.6 1 1 0 0 1-.8 0 1 1 0 0 1-.7-.4 1 1 0 0 1 0-.8c0-.3.2-.5.4-.6h.9c.3 0 .5.2.6.5.1.2.2.5 0 .7Z"
    />
</svg>