<svg
xmlns="http://www.w3.org/2000/svg"
viewBox="0 0 70 70"
>
    <path
        id="box-yt"
        d="M34 22C34 22 22.0285 22.0006 19.1785 22.6506C17.4685 22.9756 16.1407 24.1112 15.7607 25.5737C15.0007 28.0112 15 35 15 35C15 35 15.0007 41.9888 15.7607 44.4263C16.1407 45.8888 17.4685 46.8619 19.1785 47.3494C22.0285 47.9994 34 48 34 48C34 48 45.9715 47.9994 48.8215 47.3494C50.5315 47.0244 51.6693 45.8888 52.2393 44.4263C52.9993 41.9888 53 35 53 35C53 35 52.9993 28.0112 52.2393 25.5737C51.8593 24.1112 50.5315 23.1381 48.8215 22.6506C45.9715 22.0006 34 22 34 22ZM34 25.25C39.51 25.25 46.3515 25.4138 47.8715 25.7388C48.2515 25.7388 48.4385 26.0612 48.6285 26.3862C49.0085 27.8487 49.2 32.2375 49.2 35C49.2 37.7625 49.0093 42.1513 48.4393 43.6138C48.4393 43.9388 48.0585 44.0987 47.6785 44.2612C46.3485 44.5862 39.51 44.75 34 44.75C28.49 44.75 21.6485 44.5869 20.1285 44.0994C19.7485 44.0994 19.5615 43.7737 19.3715 43.4487C18.9915 42.1487 18.8 37.7625 18.8 35C18.8 32.2375 18.9915 27.8487 19.3715 26.3862C19.3715 26.0612 19.7485 25.9013 20.1285 25.7388C21.6485 25.4138 28.49 25.25 34 25.25Z"
    />
    <path
        id="playYtbe"
        d="M30.2 29.3125V40.6875L41.6 35L30.2 29.3125Z"
    />
    <rect
        id="gAntenne"
        x="33"
        y="22.5"
        width="15"
        height="2.65"
        rx="1"
        transform="rotate(0.0640968 33.0123 22.0457)"
    />
    <rect
        id="pAntenne"
        x="23"
        y="22.5"
        width="10"
        height="2.65"
        rx="1"
        transform="rotate(0.42918 23.0225 22)"
    />
    <path
        id="screenYtbe"
        d="M52.2393 44.4263C51.6693 45.8888 50.5315 47.0244 48.8215 47.3494L34 44.75C39.51 44.75 46.3485 44.5862 47.6785 44.2612L47.6884 44.257C48.0651 44.096 48.4393 43.936 48.4393 43.6138C49.0093 42.1513 49.2 37.7625 49.2 35C49.2 32.2375 49.0085 27.8487 48.6285 26.3862L48.6263 26.3824C48.4371 26.0587 48.25 25.7388 47.8715 25.7388C46.3515 25.4138 39.51 25.25 34 25.25L48.8215 22.6506C50.5315 23.1381 51.8593 24.1112 52.2393 25.5737C52.9993 28.0112 53 35 53 35C53 35 52.9993 41.9888 52.2393 44.4263Z"
    />
    <path id="carre2" d="M 50 28 H 50 V 32 H 50 V 28 Z" />
    <path id="carre1" d="M 50 35 H 50 V 39 H 50 V 35 Z" />
    <path
        id="textYtbe"
        class="spyne opacity-0"
        d="m29.306 6.643-.983 3.9-2.195.341 1.877-5.823-.47-3.029 2.06-.32.471 3.028 3.549 4.982-2.183.339-2.126-3.418Zm-6.548 5.484-.674-1.425-.942.446-.587-1.24.943-.446-1.24-2.622c-.101-.215-.21-.347-.329-.395-.117-.048-.291-.018-.52.09-.177.084-.32.165-.43.243L18.375 5.5c.273-.254.584-.464.934-.63.614-.29 1.137-.36 1.567-.208.43.15.784.521 1.063 1.11l1.345 2.845.73-.345.587 1.24-.731.345.673 1.425-1.785.844Zm-10.954-.94c-.037-.678.213-1.251.75-1.718.524-.457 1.053-.651 1.589-.584.534.073 1.05.395 1.548.966l2.698 3.098-1.489 1.297-2.705-3.106c-.357-.41-.734-.441-1.132-.095-.341.298-.478.632-.41 1.002l2.922 3.353-1.498 1.305-4.164-4.78 1.396-1.217.495.479ZM6.873 22.004c-.884-.547-1.45-1.15-1.699-1.81-.249-.659-.168-1.32.243-1.985.34-.548.83-.855 1.473-.921l-.51-.413.932-1.504 7.653 4.736-1.04 1.68-2.695-1.669c.162.532.09 1.046-.216 1.54-.415.672-.977 1.04-1.685 1.108-.707.067-1.498-.17-2.372-.71l-.084-.052Zm1.147-1.62c.518.321.93.48 1.235.476.307.001.549-.14.726-.427.234-.378.252-.73.053-1.055l-2.142-1.326c-.374-.034-.681.143-.922.532-.245.395-.207.765.112 1.11.157.17.47.4.938.69ZM1.98 27.18c.244-.941.722-1.63 1.432-2.067.715-.436 1.522-.537 2.422-.303l.159.041c.627.163 1.151.422 1.571.778.42.359.702.795.847 1.31.149.514.143 1.078-.016 1.69-.224.862-.669 1.473-1.336 1.833-.662.36-1.472.416-2.428.168l-.743-.193.987-3.8c-.362-.021-.671.058-.927.238-.257.179-.433.452-.528.819-.157.605-.068 1.132.267 1.583l-1.26.605c-.267-.324-.441-.73-.524-1.22a3.544 3.544 0 0 1 .076-1.482Zm4.944 1.055c.145-.56-.139-.988-.853-1.287l-.5 1.928.147.039c.304.087.56.07.77-.049.212-.118.357-.329.436-.631ZM3.945 41.306c.065.306.027.58-.114.82a.904.904 0 0 1-.63.451.922.922 0 0 1-.763-.156 1.132 1.132 0 0 1-.43-.706c-.066-.31-.028-.585.112-.826a.924.924 0 0 1 .631-.445.924.924 0 0 1 .757.152c.226.164.372.4.437.71Zm9.063 11.781 3.864-1.12 1.402 1.722-5.975 1.32-2.376 1.935-1.317-1.617 2.376-1.935 2.508-5.578 1.395 1.713-1.877 3.56Zm8.039 2.885-.89 1.3.861.59-.774 1.131-.86-.589-1.638 2.394c-.135.197-.193.358-.175.484.018.126.132.26.341.404.161.11.303.193.426.248l-.797 1.166a3.642 3.642 0 0 1-1.015-.488c-.56-.384-.885-.8-.971-1.247-.087-.448.054-.94.422-1.479l1.777-2.597-.668-.456.774-1.132.668.456.89-1.3 1.63 1.115Zm4.719 9.93c-.567.374-1.187.447-1.86.22-.66-.222-1.095-.58-1.307-1.077-.207-.498-.19-1.107.052-1.825l1.311-3.892 1.872.63-1.316 3.904c-.173.514-.01.856.49 1.024.43.145.787.094 1.071-.152l1.42-4.214 1.883.634-2.024 6.008-1.755-.592.163-.668Zm11.827-1.204c-.026 1.038-.26 1.832-.704 2.38-.444.547-1.056.811-1.837.791a1.873 1.873 0 0 1-1.539-.806l-.098.648-1.77-.044.226-8.997 1.974.05-.08 3.168c.378-.408.858-.605 1.44-.59.788.019 1.39.317 1.806.894.415.577.61 1.38.584 2.406l-.002.1Zm-1.977-.173c.015-.609-.056-1.045-.213-1.306-.154-.266-.398-.403-.734-.411-.446-.011-.758.15-.939.486l-.063 2.519c.16.34.468.516.925.527.465.012.765-.208.901-.657.069-.221.11-.607.123-1.158Zm8.916 1.783c-.936.264-1.772.2-2.508-.193-.737-.397-1.232-1.043-1.484-1.937l-.045-.158c-.176-.624-.217-1.207-.122-1.75a2.637 2.637 0 0 1 .703-1.391c.37-.389.859-.669 1.468-.84.857-.242 1.609-.166 2.256.227.646.39 1.103 1.061 1.371 2.012l.209.739-3.779 1.066c.164.323.389.55.673.68.285.131.61.145.974.042.602-.17 1.012-.512 1.232-1.029l1.158.782c-.145.393-.408.75-.789 1.068a3.54 3.54 0 0 1-1.317.682Zm-1.586-4.8c-.556.157-.783.619-.68 1.385l1.917-.54-.042-.148c-.078-.306-.221-.52-.43-.64-.209-.123-.464-.142-.765-.057Zm12.787-4.028c.231-.21.486-.316.766-.316a.904.904 0 0 1 .706.316.92.92 0 0 1 .251.738 1.13 1.13 0 0 1-.392.728c-.234.212-.49.32-.77.32a.924.924 0 0 1-.702-.32.923.923 0 0 1-.251-.73c.027-.278.158-.523.392-.736Zm5.594-13.771-2.917-2.77.779-2.08 4.156 4.491 2.87 1.075-.732 1.954-2.87-1.075-6.081.651.775-2.069 4.02-.177Zm-1.569-8.396 1.572.112.074-1.04 1.368.096-.074 1.04 2.893.206c.238.017.407-.014.506-.093.1-.08.159-.246.177-.5a3.082 3.082 0 0 0 0-.492l1.408.1c.088.362.118.736.09 1.122-.047.678-.243 1.167-.585 1.468-.343.3-.84.428-1.49.382l-3.139-.223-.057.807-1.367-.097.057-.807-1.572-.111.14-1.97Zm6.19-9.086c.609.3.986.799 1.13 1.495.14.68.05 1.238-.27 1.671-.326.431-.86.723-1.602.877l-4.022.833-.4-1.934 4.033-.835c.532-.11.744-.424.637-.94-.092-.444-.316-.726-.672-.848l-4.355.902-.403-1.945 6.208-1.286.376 1.813-.66.197Zm-7.01-9.601c.91-.502 1.713-.7 2.41-.594.696.107 1.233.502 1.61 1.186a1.87 1.87 0 0 1 .081 1.735l.61-.242.855 1.55-7.88 4.347-.955-1.729 2.776-1.531c-.543-.12-.956-.434-1.237-.944-.381-.69-.427-1.361-.14-2.011.29-.65.883-1.223 1.783-1.72l.087-.047Zm.849 1.793c-.534.294-.874.576-1.02.844-.152.267-.147.547.016.841.215.39.513.578.893.565l2.206-1.218c.213-.31.21-.664-.011-1.064-.225-.407-.566-.556-1.023-.446-.225.053-.579.212-1.061.478Zm-2.962-8.596c.7.675 1.067 1.429 1.1 2.262.029.837-.279 1.59-.924 2.26l-.114.118c-.45.467-.932.796-1.448.989a2.637 2.637 0 0 1-1.556.095c-.522-.123-1.01-.404-1.467-.843-.641-.617-.955-1.305-.942-2.062.011-.755.36-1.488 1.045-2.2l.532-.552 2.828 2.723c.196-.305.278-.613.248-.925-.031-.311-.183-.599-.456-.861-.45-.434-.953-.615-1.51-.544l.09-1.394c.413-.074.853-.027 1.32.141.462.168.88.432 1.254.793Zm-3.343 3.792c.416.401.93.364 1.54-.112l-1.436-1.382-.105.11c-.226.223-.337.454-.336.694 0 .243.112.473.337.69ZM43.55 4.611a1.117 1.117 0 0 1-.66-.502.904.904 0 0 1-.084-.769.922.922 0 0 1 .51-.59c.253-.112.528-.122.826-.028.302.094.524.262.665.503.138.24.164.496.079.768a.924.924 0 0 1-.503.585c-.254.117-.532.128-.834.033Z"
    />
</svg>