<svg 
    xmlns="http://www.w3.org/2000/svg"
    version="1.1"
    viewBox="0 0 3000 3000"
>
    <path
    id="B"
    d="M1169.06,1481.25c125-31.25,243.75-129.17,243.75-320.84C1412.81,739.58,927.392,750,927.392,750H441.977V2208.33H927.392c97.918,0,506.248-18.75,506.248-418.75C1433.64,1789.58,1444.06,1537.5,1169.06,1481.25ZM683.643,991.663H927.392s241.668-10.417,241.668,185.417c0,181.25-241.668,181.25-241.668,181.25H683.643V991.663Zm243.749,975H683.643V1602.08H927.392s262.5-14.59,262.5,181.25C1189.89,1941.66,1029.48,1966.66,927.392,1966.66Z"
    />
    <path
    id="O"
    d="M2071.9,1124.97c-297.92,0-541.67,243.75-541.67,541.67s243.75,541.67,541.67,541.67,541.66-243.75,541.66-541.67S2369.81,1124.97,2071.9,1124.97Zm0,841.67c-166.67,0-300-133.33-300-300s133.33-300,300-300,299.99,133.33,299.99,300S2238.56,1966.64,2071.9,1966.64Z"
    />
    <path id="-" d="M1596.9,991.808h962.49V750.142H1596.9V991.808Z" />
</svg>