<svg xmlns="http://www.w3.org/2000/svg" viewBox="0 0 3000 3000">
  <path id="B" d="M1169 1481a310 310 0 0 0 244-321c0-420-486-410-486-410H442v1458h485c98 0 507-18 507-418 0 0 10-252-265-309ZM684 992h243s242-11 242 185c0 181-242 181-242 181H684V992Zm243 975H684v-365h243s263-15 263 181c0 159-161 184-263 184Z"/>
  <path id="O" d="M2072 1125a544 544 0 0 0-542 542 543 543 0 0 0 1084 0c0-298-244-542-542-542Zm0 842c-167 0-300-134-300-300s133-300 300-300 300 133 300 300-133 300-300 300Z"/>
  <path id="-" d="M1597 992h962V750h-962v242Z"/>
</svg>
