<svg xmlns="http://www.w3.org/2000/svg" viewBox="0 0 13 13">
  <path d="M4.2 12.5c-.4.2-.8 0-1.2-.2-.4-.3-.6-.6-.6-1l.1-.8 1-.6c.5-.3 1-.6 1.3-1a8 8 0 0 0 1.5-1.5 9.8 9.8 0 0 0-3.7-1l-1-.1a1 1 0 0 1-.5-.6L1 5.1c0-.3 0-.6.3-1 .3-.2.5-.3.9-.3l.7.1.6.7 1.1 1.2L6.3 7a11 11 0 0 0-.8-4l-.3-1c0-.2 0-.4.2-.6.2-.3.6-.5 1.2-.5s1 .2 1.2.5l.1.5c0 .3 0 .6-.3 1.1a15 15 0 0 0-.7 2l-.2 2.2 1.7-1 1.3-1.5.8-.8.7-.2c.3 0 .6 0 .9.4.3.3.4.6.4 1 0 .2 0 .4-.2.5l-.7.4a7 7 0 0 1-1 .3c-.7 0-1.4.2-2 .3l-1.8.9c1 1.1 2.2 1.9 3.3 2.4.3 0 .6.2.7.3l.4.6c.1.3 0 .6-.1.9-.2.3-.4.6-.7.7-.4.2-.6.3-.9.1a1 1 0 0 1-.5-.3l-.4-1a8.8 8.8 0 0 0-2-3.5A8.4 8.4 0 0 0 5 11.1c0 .5-.2.8-.3 1 0 .2-.3.3-.6.4Z"/>
</svg>