<svg xmlns="http://www.w3.org/2000/svg" viewBox="0 0 1299 566">
  <path id="oddou" style="stroke-dasharray: 930;" stroke-linecap="round" d="M296 426c-4 4-5 14-1 19 3 3 7 4 11 2l10-7c3-3 3-8 3-13l-2-9c-1-3-4-2-7-2-5 0-8 5-9 10-1 3-2 7 2 7 8 2 15-6 24-7l2-1-1 2-2 9c0 5 4 8 8 8h4l5-5c2-2 4-5 4-8 0-2 1-4-1-5-2-2-4-4-7-4-4-1-11 0-12 6-1 2-3 9-1 11 3 2 4 4 7 4l7-2c3-1 5-5 7-8 6-11 9-24 12-36l6-20 1-4 3-8-2 7-7 23-4 16-4 15v8c1 3 6 2 9 1 2 0 3-2 5-3l6-3c2-1 3-2 3-4v-1l-1 3c-1 2 0 6 1 6 4 2 8 2 12 0 4-3 9-8 6-13l-7-7c-2-2-7-2-9 0l-4 10c0 3 2 8 6 8 5 0 10 0 13-5l4-10 7-28 6-25 2-10v3l-3 13-11 42c-1 5-5 12-1 15 2 2 6 1 8 0 4-2 8-5 10-9l1-5v-1 8c1 3 4 5 7 6 6 1 12-4 16-7 3-4 7-9 6-14-1-3-5-6-7-7-3-1-9-3-12-1-3 1-3 8-4 11 0 4 2 6 5 6 7 1 13-4 17-8l6-4v2c0 6 7 6 11 6 13 1 25-8 35-15l3-2h3c10 0 19-4 29-6s19 1 29 1"/>
  <path id="dash" style="stroke-dasharray: 1824;" stroke-linecap="round" d="M560 387c-24 0-45 7-67 14-84 26-168 55-251 83-57 19-113 36-171 48l-42 9h1l17-7c37-18 76-32 115-47 136-50 273-98 414-136 137-37 276-67 415-94 51-10 102-19 152-32 13-3 24-6 36-11 5-2 11-3 15-6 57-26-17 8 11-8"/>
  <path id="f-back" style="stroke-dasharray: 2980;" stroke-linecap="round" d="M337 363c15-9 27-23 36-38 26-38 44-81 53-125 10-51 16-104 16-156 0-13 4-52-1-40-9 25-11 55-15 81-15 104-23 209-27 314-2 51-1 206-1 155 0-20-1-40-5-60-9-43-18-92-46-129-18-22-35-38-65-40-18-2-33 2-48 10-39 21-77 47-111 74l-73 68c-15 16-35 33-46 52-6 11 4 6 15 4l97-28c123-35 246-67 371-95 235-52 472-93 710-133 32-5 67-14 100-14l-4 4-43 21"/>
</svg>