<svg
viewBox="0 0 1299 566"
fill="none"
xmlns="http://www.w3.org/2000/svg"
>
    <path
        id="oddou"
        style="stroke-dasharray: 930;"
        d="M296.277 426.411C292.033 430.457 291.094 440.292 295.376 444.721C298.448 447.898 301.739 448.773 305.912 446.886C309.371 445.323 313.007 443.078 315.51 440.189C318.507 436.729 318.849 431.558 318.934 427.175C318.997 423.934 318.459 420.976 316.944 418.129C315.517 415.446 313.091 415.511 310.275 415.625C305.048 415.838 301.506 420.845 300.631 425.562C300.08 428.537 299.073 432.651 302.999 433.299C311.493 434.7 318.49 427.067 326.677 425.685C327.585 425.532 328.292 425.083 329.138 424.782C329.994 424.478 328.083 426.293 327.802 427.156C326.801 430.223 326.097 433.212 325.972 436.42C325.801 440.787 330.219 443.884 334.092 444.035C335.316 444.083 336.883 444.423 337.956 443.738C339.85 442.53 341.517 440.83 342.908 439.081C344.667 436.869 346.907 433.715 347.107 430.765C347.251 428.646 347.536 427.241 346.044 425.628C344.191 423.624 342.021 422.164 339.313 421.573C334.537 420.529 328.114 422.175 326.684 427.601C325.993 430.219 324.253 436.81 326.415 439.148C328.518 441.422 329.626 443.297 333.042 443.26C335.223 443.237 337.902 441.765 339.92 440.961C343.03 439.722 345.1 435.904 346.646 433.153C352.916 421.998 355.88 409.147 359.438 396.962C361.323 390.507 362.811 383.779 365.113 377.473C365.646 376.015 365.847 374.469 366.429 373.02C367.419 370.559 368.849 362.755 368.745 365.406C368.673 367.264 367.755 369.863 367.193 371.725C364.889 379.37 362.205 386.929 359.978 394.619C358.417 400.009 357.167 405.483 355.793 410.905C354.542 415.845 353.034 420.713 351.792 425.649C351.238 427.848 350.912 431.882 351.937 433.91C353.491 436.986 357.9 436.106 360.604 435.371C362.729 434.793 364.328 433.359 365.938 431.91C367.684 430.339 369.635 429.576 371.77 428.714C373.511 428.012 374.618 427.493 375.364 425.431C375.699 424.505 376.141 422.71 375.324 424.369C374.878 425.276 374.53 426.316 374.11 427.257C373.432 428.777 373.629 432.52 375.343 433.257C379.022 434.84 383.035 434.729 386.699 432.683C391.042 430.257 395.908 424.824 392.961 419.556C391.341 416.66 388.496 415.417 386.135 413.255C383.859 411.171 379.186 410.949 377.32 413.481C375.272 416.258 373.608 419.248 373.471 422.747C373.333 426.288 374.841 430.954 378.933 431.115C384.223 431.322 389.335 430.989 392.23 425.724C393.839 422.8 395.035 419.224 395.832 415.999C398.182 406.494 400.873 397.087 403.143 387.544C405.118 379.24 406.983 370.952 408.666 362.586C409.31 359.381 410.947 355.855 411.074 352.611C411.121 351.42 410.853 354.987 410.65 356.161C409.917 360.385 408.86 364.353 407.741 368.502C403.913 382.699 399.987 396.854 396.673 411.181C395.602 415.811 392.383 422.5 396.363 426.375C398.145 428.11 401.738 426.84 403.634 426.007C408.112 424.042 411.594 420.827 414.055 416.529C414.678 415.441 415.262 413.549 415.342 412.279C415.363 411.952 415.469 409.048 415.411 410.528C415.303 413.28 414.341 415.989 414.945 418.786C415.596 421.803 418.992 424.194 421.818 424.926C427.558 426.411 433.771 421.328 437.61 417.778C441.491 414.19 444.528 409.499 443.84 403.936C443.428 400.607 439.214 398.356 436.61 397.008C433.998 395.656 428.092 394.123 425.191 395.542C421.906 397.148 421.659 404.294 421.422 407.462C421.16 410.955 422.967 412.787 426.348 413.362C432.736 414.448 438.527 408.794 443.419 405.306C445.321 403.95 447.098 402.394 448.988 401.04C449.843 400.427 449.482 402.485 449.466 402.873C449.239 408.669 455.637 408.507 460.119 408.814C473.296 409.714 484.936 401.172 495.425 394.215C496.252 393.667 497.241 393.053 497.925 392.315C498.428 391.773 500.539 392.204 501.151 392.177C511.088 391.739 520.252 387.767 529.915 385.863C539.634 383.947 549.236 387.459 559.054 387.167"
        stroke-linecap="round"
    />
    <path
        id="dash"
        style="stroke-dasharray: 1824;"
        d="M559.732 387.152C536.428 387.152 515.254 393.58 492.996 400.52C408.71 426.798 325.433 456.324 241.651 484.146C185.392 502.828 128.822 519.55 70.8237 531.918C56.8829 534.89 42.8936 537.563 28.9587 540.518C24.6098 541.441 28.6103 541.266 30.3577 540.829C36.0133 539.415 41.4646 536.135 46.6788 533.679C84.1585 516.026 123.186 501.794 162.015 487.462C298.248 437.175 435.403 389.484 575.586 351.297C712.766 313.929 851.915 284.176 991.386 256.842C1041.85 246.952 1092.88 238.326 1142.68 225.34C1155.78 221.924 1166.77 218.719 1179.47 214.148C1184.48 212.344 1189.51 210.539 1194.34 208.293C1250.68 182.096 1177.44 216.189 1205.12 199.692"
        stroke-linecap="round"
    />
    <path
        id="f-back"
        style="stroke-dasharray: 2980;"
        d="M337.34 363.347C352.303 353.519 363.548 339.526 373.327 325.201C399.339 287.095 416.533 243.904 425.673 199.729C436.233 148.693 442.235 96.104 442.235 44.1026C442.235 30.8762 445.909 -8.04894 441.213 4.43488C431.797 29.4659 429.761 59.1422 426.082 85.1971C411.42 189.044 403.336 293.907 398.887 398.543C396.691 450.189 398.069 605.285 398.069 553.599C398.069 533.564 396.571 513.819 392.752 494.05C384.371 450.66 374.902 402.022 346.643 365.439C329.139 342.78 312.237 327.277 281.518 324.725C264.241 323.29 248.981 326.893 233.977 334.999C195.146 355.978 157.193 381.817 123.459 409.388C97.6266 430.5 73.7616 454.208 50.2564 477.498C34.748 492.865 14.6992 509.803 3.94271 528.866C-2.48646 540.261 8.20952 535.465 18.9716 532.672C51.5848 524.208 83.7378 514.327 116.097 505.085C238.821 470.036 361.907 437.653 486.811 409.863C721.712 357.602 959.04 316.529 1196.75 277.352C1228.63 272.097 1264.02 263.083 1296.53 263.083C1298.34 263.083 1294.42 265.954 1292.85 266.793C1278.86 274.282 1264.37 280.971 1250.12 288.007"
        stroke-linecap="round"
    />
</svg>